
<svg width="1440" height="400" viewBox="0 0 1440 400" fill="none" xmlns="http://www.w3.org/2000/svg">
  <!-- Vintage World Map with Connection Points -->
  <path d="M0 0H1440V400H0V0Z" fill="#0D1B2A" fill-opacity="0.05"/>
  
  <!-- Continental Outlines -->
  <path d="M400 100C450 90 500 120 520 150C540 180 580 200 610 190C640 180 660 150 680 160C700 170 710 200 740 210C770 220 810 200 840 210C870 220 890 250 920 240C950 230 970 200 1000 190C1030 180 1070 200 1100 190C1130 180 1150 150 1180 140C1210 130 1250 150 1280 140" stroke="#FFD700" stroke-opacity="0.3" stroke-width="2"/>
  
  <path d="M200 180C250 170 300 200 320 230C340 260 380 280 410 270C440 260 460 230 480 240C500 250 510 280 540 290C570 300 610 280 640 290C670 300 690 330 720 320C750 310 770 280 800 270C830 260 870 280 900 270C930 260 950 230 980 220C1010 210 1050 230 1080 220" stroke="#FFD700" stroke-opacity="0.3" stroke-width="2"/>
  
  <!-- Connection Points and Lines -->
  <circle cx="500" cy="150" r="5" fill="#FFD700" fill-opacity="0.6"/>
  <circle cx="700" cy="200" r="5" fill="#FFD700" fill-opacity="0.6"/>
  <circle cx="900" cy="250" r="5" fill="#FFD700" fill-opacity="0.6"/>
  <circle cx="1100" cy="150" r="5" fill="#FFD700" fill-opacity="0.6"/>
  
  <line x1="500" y1="150" x2="700" y2="200" stroke="#FFD700" stroke-opacity="0.4" stroke-width="1"/>
  <line x1="700" y1="200" x2="900" y2="250" stroke="#FFD700" stroke-opacity="0.4" stroke-width="1"/>
  <line x1="900" y1="250" x2="1100" y2="150" stroke="#FFD700" stroke-opacity="0.4" stroke-width="1"/>
  
  <!-- Target/Concentric Circles -->
  <circle cx="700" cy="200" r="30" stroke="#FFD700" stroke-opacity="0.2" stroke-width="1" fill="none"/>
  <circle cx="700" cy="200" r="20" stroke="#FFD700" stroke-opacity="0.3" stroke-width="1" fill="none"/>
  <circle cx="700" cy="200" r="10" stroke="#FFD700" stroke-opacity="0.4" stroke-width="1" fill="none"/>
  
  <circle cx="900" cy="250" r="30" stroke="#FFD700" stroke-opacity="0.2" stroke-width="1" fill="none"/>
  <circle cx="900" cy="250" r="20" stroke="#FFD700" stroke-opacity="0.3" stroke-width="1" fill="none"/>
  <circle cx="900" cy="250" r="10" stroke="#FFD700" stroke-opacity="0.4" stroke-width="1" fill="none"/>
  
  <!-- Regional Labels -->
  <text x="300" y="330" fill="#FFD700" fill-opacity="0.6" font-family="serif" font-size="16">LATIN AMERICA</text>
  <text x="700" y="150" fill="#FFD700" fill-opacity="0.6" font-family="serif" font-size="16">EUROPE</text>
  <text x="1000" y="300" fill="#FFD700" fill-opacity="0.6" font-family="serif" font-size="16">ASIA</text>
  <text x="500" y="250" fill="#FFD700" fill-opacity="0.6" font-family="serif" font-size="16">AFRICA</text>
  
  <!-- Paris Skyline (simplified) at bottom -->
  <path d="M710 40V350H730V40H710Z" fill="#FFD700" fill-opacity="0.3"/>
  <path d="M690 60V350H750V60H690Z" fill="#FFD700" fill-opacity="0.25"/>
  <path d="M670 120V350H770V120H670Z" fill="#FFD700" fill-opacity="0.2"/>
  <path d="M650 240V350H790V240H650Z" fill="#FFD700" fill-opacity="0.15"/>
  
  <!-- Additional Bridge-like elements (symbolizing "Building Bridges") -->
  <path d="M300 380C350 350 400 350 450 380" stroke="#FFD700" stroke-opacity="0.5" stroke-width="2" fill="none"/>
  <path d="M500 380C550 350 600 350 650 380" stroke="#FFD700" stroke-opacity="0.5" stroke-width="2" fill="none"/>
  <path d="M700 380C750 350 800 350 850 380" stroke="#FFD700" stroke-opacity="0.5" stroke-width="2" fill="none"/>
  <path d="M900 380C950 350 1000 350 1050 380" stroke="#FFD700" stroke-opacity="0.5" stroke-width="2" fill="none"/>
</svg>
